# xmcd CD database file
#
# Track frame offsets:
#	150
#	29865
#	51230
#	81902
#	101550
#	119030
#	131097
#	149195
#	168972
#	186735
#	202242
#
# Disc length: 2940 seconds
#
# Revision: 3
# Processed by: cddbd v1.5.2PL0 Copyright (c) Steve Scherf et al.
# Submitted via: CDex 1.51
#
DISCID=bc0b7a0b
DTITLE=Various Artist - the best of FAT POSSUM
DYEAR=1997
DGENRE=Blues
TTITLE0=R.L. Burnside - Georgia Women
TTITLE1=R.L .Burnside - Snake Drive
TTITLE2=Junior Kimbrough - Meet Me In The City
TTITLE3=Junior Kimbrough - Sad Days, Lonley Nights
TTITLE4=Dave Thompson - You Took My Baby
TTITLE5=Dave Thompson - Hey Moma
TTITLE6=Paul Jones - Rob and Steal
TTITLE7=Paul Jones - My Baby Got Drunk
TTITLE8=Cedell Davis - I Don't Know Why
TTITLE9=Cedell Davis - Cedell's Boogie
TTITLE10=Jell Roll Kings - Coahoma County Blues
EXTD=The best of the 'Fat Possum' blues records.\n\nFat Possum records - Capricorn Records.\n\n YEAR: 1997
EXTT0=
EXTT1=
EXTT2=
EXTT3=
EXTT4=
EXTT5=
EXTT6=
EXTT7=
EXTT8=
EXTT9=
EXTT10=
PLAYORDER=
